<?xml version="1.0" encoding="utf-8" ?><svg xmlns="http://www.w3.org/2000/svg" xmlns:xlink="http://www.w3.org/1999/xlink" width="1830" height="882" viewBox="0 0 1830 882"><path fill="#317260" d="M1439.42 280.719C1446.59 280.725 1461.28 281.169 1467.87 280.656C1468.54 302.057 1468.52 324.263 1468.26 345.702C1467.42 417.019 1469.62 489.008 1467.95 560.239L1466.35 559.655C1455.65 562.892 1431.72 560.297 1419.15 561.064C1402.05 562.845 1383.28 538.135 1369.05 548.366C1366.99 549.851 1362.7 560.881 1362.79 564.31L1359.35 565.632C1356.85 571.449 1357.97 588.299 1358.6 594.986C1360.53 596.176 1360.02 595.777 1362.82 595.533C1361.92 605.944 1377.56 620.315 1385.9 625.107C1389.35 627.09 1391.75 627.586 1394.75 630.603L1396.36 630.999C1400.73 632.503 1401.6 633.235 1405.14 636.239C1416.61 636.397 1428.07 636.352 1439.53 636.106C1467.58 636.793 1495.88 635.749 1523.95 636.275C1526.44 636.321 1529.7 636.454 1532.08 636.184C1538.96 636.323 1556.31 637.062 1562.46 636.341C1587.05 636.117 1642.29 664.121 1661.37 681.273C1665.13 684.66 1675.7 696.893 1679.86 701.133C1679.86 701.132 1683.43 701.428 1683.58 701.439C1683.59 701.44 1684.02 704.794 1684.02 704.809C1685.92 709.382 1692.17 717.76 1694.95 721.793L1698.28 722.253C1698.64 725.562 1698.43 729.971 1700.46 731.771L1702.58 731.7C1704.94 735.637 1702.62 738.411 1705.18 741.275L1708.14 741.277C1708.81 744.596 1708.6 750.154 1709.6 751.751L1712.61 751.649C1715.79 757.274 1718.81 774.869 1720.16 776.911L1723.18 776.536C1724 780.794 1723.64 786.923 1723.55 791.398C1722.89 802.649 1728.28 856.712 1716.85 860.561C1712.44 859.77 1710.32 853.198 1704.61 850.741C1699.73 846.649 1684.53 833.091 1679.34 832.185C1673.31 830.254 1671.82 824.771 1662.89 826.341C1659.87 826.872 1658.48 825.36 1656.59 823.324C1647.72 819.689 1505.91 821.988 1482.85 821.788C1469.67 821.673 1460.54 816.46 1448.66 816.695C1445.6 816.688 1442.45 816.589 1439.38 816.53L1438.82 814.314C1435.49 812.054 1428.42 811.289 1424.48 811.304L1423.73 809.121C1421.53 806.915 1416.87 806.515 1413.33 805.542C1412.45 802.147 1407.34 802.396 1401.48 798.334L1394.07 793.789C1391.83 792.183 1389.26 790.072 1387.05 788.344L1380.54 784.321L1375.68 780.427C1373.78 778.963 1371.2 776.484 1369.35 774.808L1367.61 773.016C1366.06 772.149 1361.9 767.606 1360.57 766.18L1359.91 765.753L1356.32 761.229C1354.62 760.208 1352.49 757.873 1351.02 756.401L1345.05 750.581C1344.43 749.138 1341.87 745.839 1340.8 744.384C1338.41 740.02 1334.87 735.96 1331.73 732.061L1331.06 730.86C1329.92 728.566 1321.12 712.062 1320.14 711.295C1318.69 709.104 1318.33 707.022 1317.7 704.501L1316.83 701.797L1314.74 701.038C1313.03 696.565 1314.5 696.204 1311.09 690.319L1310.56 690.07C1307.43 684.191 1307.94 681.06 1308.16 674.399C1308.74 671.822 1308.2 662.988 1308.08 659.814C1308.61 653.237 1307.34 638.269 1307.25 630.491C1307.11 618.678 1309.64 595.638 1308.18 585.347C1307.96 581.967 1308.2 576.523 1308.24 572.987L1308.3 572.096C1314.96 566.228 1315.68 549.632 1323.15 540.427C1323.95 538.116 1323.99 537.661 1325.47 535.784L1327.47 534.531C1329.32 529.392 1327.65 528.661 1332.17 525.897L1332.8 523.934C1344.06 511.835 1336.92 508.868 1330.18 497.764C1327.41 493.191 1323.9 485.571 1321.56 480.583L1319.52 481.134L1318.86 479.974C1318.28 476.002 1319.12 469.303 1315.48 467.478L1312.78 465.542L1313.51 462.309C1314.13 457.855 1312.88 432.226 1312.78 425.465C1312.65 415.574 1314.28 397.678 1313.54 389.333C1313.55 387.227 1313.53 385.121 1313.47 383.015C1318.16 380.948 1317.78 380.707 1317.71 376.226C1318.57 371.979 1319.35 371.243 1322.2 367.88C1322.84 366.081 1322.99 364.723 1323.29 362.874L1326.14 359.61L1327.7 356.833C1329.1 349.315 1332.41 351.833 1333.27 346.18C1336.03 343.679 1337.43 341.671 1339.67 338.691C1340.82 336.02 1342.42 336.718 1344.73 330.736L1345.83 330.972L1347.38 330.386C1349.63 324.866 1352.1 327.534 1354.73 322.275C1356.92 321.213 1358.74 319.518 1360.63 317.953C1362.3 316.165 1374.85 306.804 1376.72 306.482C1378.86 306.126 1389.77 298.961 1392.02 297.279L1393.87 296.183C1400.43 295.813 1407.63 289.375 1413.71 287.066C1417.84 285.498 1422.22 286.487 1427.29 284.605L1427.97 281.659L1431.28 281.411C1433.38 280.86 1437.13 280.822 1439.42 280.719Z"/><path fill="#317260" d="M1053.19 290.894C1061.55 290.832 1072.11 290.293 1080.15 291.86C1086.07 293.014 1083.57 295.896 1092.26 295.866C1099.85 295.195 1108.32 299.282 1116.37 301.638C1120.12 306.736 1127.94 307.171 1133.9 310.436C1145.08 316.569 1156.46 321.688 1165.8 330.655C1169.09 333.809 1177.37 341.501 1181.94 341.473L1182.68 345.295C1184.66 345.966 1185.12 345.946 1187.24 346.105L1187.28 346.642C1187.47 348.763 1187.46 348.91 1188.28 350.822C1189.96 352.105 1196.21 356.47 1196.88 357.914C1201.5 367.907 1210.32 378.579 1216.68 387.609C1217.69 389.039 1222.87 403.365 1223.74 405.925L1226.91 406.104C1229.01 410.27 1227 415.404 1228.93 419.564L1231.39 420.091C1233.89 430.494 1237.71 439.644 1237.49 449.184C1236.92 462.988 1237.62 479.993 1237.67 494.103L1237.73 586.517L1237.48 633.791C1237.46 636.695 1237.16 652.419 1237.64 654.607L1237.8 655.711C1231.09 655.309 1211.79 656.347 1204.11 656.405L1112.08 656.408C1096.34 656.456 1066.44 657.25 1051.86 655.572C1052.45 651.295 1052.14 635.303 1052.13 630.324L1052.13 576.025L1052.17 408.793C1051.94 375.859 1050.56 323.783 1053.19 290.894Z"/><path fill="#317260" d="M961.573 295.914C971.629 296.576 989.09 293.458 996.853 295.692C998.542 366.973 997.065 442.73 997.131 514.372L997.172 604.624C997.17 619.81 997.753 641.206 996.639 655.956C951.332 657.826 904.865 655.293 859.442 656.459C844.457 656.844 828.143 656.638 813.233 655.782C811.264 645.209 811.839 614.454 811.809 602.342L811.453 490.784C811.477 477.071 813.068 455.51 812.22 442.917C812 427.404 817.177 434.198 817.08 422.749L818.106 417.04C820.751 415.476 830.548 390.111 834.188 384.807C836.251 381.799 846.664 368.394 847.487 366.202C850.724 362.636 853.059 358.225 855.751 355.401L857.057 354.146L857.559 352.364C859.536 351.165 872.352 339.833 873.161 337.435L877.51 335.459L880.043 333.162C881.315 332.015 889.665 325.585 891.094 324.818C894.582 323.208 903.165 316.52 905.782 316.037C910.841 312.196 922.997 306.614 929.424 305.166C930.937 304.825 930.713 304.556 932.076 303.084C934.214 300.729 934.534 301.266 938.148 300.267C943.021 301.067 943.281 300.056 946.192 296.802L948.062 296.433C953.722 295.702 955.953 295.717 961.573 295.914Z"/><path fill="#317260" d="M556.117 295.927C578.996 292.572 611.134 295.821 634.847 294.678C641.703 294.348 652.514 294.308 659.018 292.99L645.294 293.3C653.869 292.389 662.462 292.411 671.077 292.479C690.371 292.629 709.707 292.184 728.989 292.563C731.806 292.621 738.555 295.207 741.414 296.274C742.736 320.283 741.885 351.209 741.887 375.812L741.654 530.433L741.79 610.237C741.832 618.091 742.419 644.725 741.301 651.725C734.199 653.297 712.919 650.776 702.958 651.362C701.758 651.436 700.556 651.489 699.355 651.522C692.442 651.693 687.307 648.604 680.838 646.15C655.785 636.642 630.079 620.875 610.66 602.613C589.812 583.258 575.897 560.543 564.789 534.655C557.948 518.713 556.332 519.581 555.861 501.402C556.312 498.2 556.252 493.953 556.231 490.688C557.095 462.226 554.721 433.078 554.975 404.761C555.298 368.789 555.395 331.831 556.117 295.927Z"/><path fill="#317260" d="M336.67 496.058C362.883 496.283 389.096 496.345 415.309 496.244C428.73 496.24 447.275 496.805 460.374 496.051C463.744 496.193 465.487 496.406 468.782 495.595L470.367 495.835C471.577 506.585 471.339 519.294 471.165 530.206C470.524 570.346 471.983 611.121 470.548 651.182C467.537 650.873 468.504 650.547 466.514 651.962L465.107 655.042C454.347 658.639 363.141 656.546 347.208 656.526C257.891 657.306 168.569 657.021 79.2593 655.669C77.5634 654.944 77.6508 654.996 76.6818 653.412C81.6535 649.965 95.9413 629.314 101.662 622.533C135.357 582.59 159.802 541.714 208.449 517.069C215.202 513.648 224.236 510.201 231.212 506.996C233.535 505.929 239.156 506.889 244.389 504.476C243.118 504.089 242.195 503.953 241.245 503.036C265.587 498.14 264.612 496.717 289.67 496.243C303.558 496.242 323.254 496.86 336.67 496.058Z"/><path fill="#317260" d="M95.4812 337.272C96.8222 327.532 94.3833 306.508 96.8587 296.634C97.2206 295.19 103.231 293.801 105.336 293.52L106.206 293.41L104.564 293.152C109.589 292.211 158.315 292.485 165.385 292.624C204.306 293.389 245.993 291.277 284.577 293.069L275.632 293.875C284.44 295.049 312.958 294.71 323.312 294.728L428.435 294.382C439.911 294.441 462.809 293.92 473.413 295.953C474.22 298.003 473.256 299.305 472.454 301.894L472.387 301.219C470.303 304.689 470.502 306.206 470.408 310.329C465.139 317.241 459.233 323.702 453.636 330.365C450.523 334.073 446.708 337.112 443.711 340.984C438.833 347.287 433.942 353.684 429.898 360.574C428.809 360.74 427.719 360.905 426.63 361.071C425.221 363.581 422.319 367.427 420.678 369.476C414.034 377.776 406.242 385.027 400.169 393.709C399.346 394.885 397.537 395.011 396.091 395.26C390.235 401.004 384.67 406.616 377.526 410.694C373.026 413.262 376.191 414.364 374.116 414.74C363.419 416.677 352.087 429.893 341.829 430.753C339.779 430.925 337.563 431.112 336.1 432.331L335.785 434.903C332.69 437.181 323.808 435.62 322.716 436.597C316.334 442.305 315.292 441.233 306.188 441.251C291.037 440.2 263.497 441.217 247.652 441.302L149.231 441.227C139.739 441.233 102.634 442.183 95.9156 439.556C94.797 430.075 95.2233 409.231 95.2665 399.024C95.3521 378.805 94.9278 357.407 95.4812 337.272Z"/><path fill="#317260" d="M1513.39 280.611C1548.53 278.882 1565.83 286.789 1598.08 301.342C1603.81 309.137 1605.39 305.271 1607.25 306.804C1613.68 312.077 1622.84 319.767 1629.35 325.342C1631.22 326.945 1636.51 329.981 1637.5 331.25C1640.32 334.836 1641.81 340.362 1644.61 344.329C1645.76 345.942 1652.67 351.192 1652.94 351.669C1653.52 352.673 1652.95 359.073 1654.46 361.065L1657.36 360.733C1660.83 366.5 1664.55 378.085 1663.83 385.389C1662.75 393.658 1664.01 414.445 1664.05 424.271C1664.1 434.835 1662.75 454.475 1663.71 463.955C1664.88 484.604 1633.62 513.029 1633.04 520.554L1629.76 520.584C1627.85 522.847 1628.4 522.2 1627.84 525.388C1622.34 525.704 1579.71 563.325 1556.36 561.111C1552.7 560.571 1536.07 560.871 1532.46 562.292C1532.16 563.849 1532.23 563.87 1531.3 565.25C1527.43 565.441 1521.76 565.965 1518.11 565.246C1518.13 562.33 1518.1 560.993 1517.7 558.094L1514.48 560.031C1514.11 556.961 1513.67 553.902 1513.15 550.856L1512.98 433.468C1512.98 418.094 1513.96 394.084 1512.81 379.479C1513.98 360.319 1512.44 335.704 1513.15 315.898C1513.31 311.168 1513.71 283.267 1513.39 280.611Z"/><path fill="#317260" d="M591.334 40.8636C607.932 38.0347 624.708 42.0463 638.188 40.2464C657.682 39.4333 687.08 57.8916 701.38 70.6685C717.011 84.6334 742.894 119.872 741.564 141.211C740.879 149.538 741.65 158.833 741.575 167.241C741.404 186.218 742.614 207.078 741.941 226.002C735.464 227.694 700.783 225.11 690.263 225.925C665.932 224.899 641.595 207.349 624.577 190.914C614.665 181.342 591.479 147.582 591.557 134.794L591.703 128.652C592.139 122.256 591.442 112.203 591.461 105.507C591.519 85.2487 589.824 60.8185 591.334 40.8636Z"/><path fill="#317260" d="M1809.76 174.737C1808.67 179.537 1809.1 195.682 1809.43 201.137C1809.23 206.765 1808.72 216.726 1809.38 222.235C1809.34 223.669 1809.21 229.337 1808.63 230.08C1804.84 235.008 1796.26 256.811 1792.85 260.051C1786.5 261.1 1781.56 272.282 1776.8 275.443C1769.78 280.1 1744.41 293.9 1737.41 294.863C1717.67 293.115 1685.67 298.212 1664 295.197C1663.3 281.918 1664.31 268.781 1663.9 255.528C1663.76 252.39 1663.68 251.407 1664.19 248.255C1670.96 242.157 1666.83 240.989 1669.12 236.692C1682.57 211.426 1704.07 188.549 1731.7 179.172C1735.58 177.854 1735.55 176.682 1740.3 176.046C1745.09 176.507 1806.37 175.628 1809.76 174.737Z"/><path fill="#2F7160" fill-opacity="0.015686275" d="M1649.44 826.747L1649.55 828.882C1651.93 831.237 1655.46 831.621 1659.04 832.648C1647.05 832.897 1634.33 833.279 1622.3 833.149C1617.58 833.097 1617.57 828.1 1611.01 828.839C1610.29 830.846 1610.28 831.324 1608.75 832.694C1592.24 832.917 1493.75 835.643 1482.37 832.28L1480.7 828.583C1474.95 827.153 1460.28 830.016 1452.41 827.938C1452.17 826.284 1451.92 825.152 1451.53 823.526C1447.25 821.242 1441.04 824.67 1436.91 822.551L1436.76 819.022C1433.46 817.056 1426.74 819.759 1423.11 818.407C1421.63 817.854 1422.02 816.172 1420.82 813.526C1417.16 812.046 1408.55 814.307 1407.58 812.868C1399.1 800.367 1403.82 805.367 1392.42 803.197C1392.32 800.896 1392.51 799.931 1391.14 798.095C1388.23 797.787 1386.22 797.765 1383.29 797.76C1378.86 794.519 1371.18 784.128 1366.82 779.886C1364.71 777.832 1361.86 778.552 1358.45 778.574C1354.48 776.326 1357.89 776.455 1355.87 773.805C1354.82 772.382 1346.13 768.115 1346.51 766.416C1349.03 755.143 1341.17 758.416 1336.05 751.355C1334.51 749.226 1333.14 746.308 1330.95 743.546L1327.75 743.552C1326.3 742.215 1327.01 737.211 1326.65 733.957L1322.44 733.321C1320.25 730.153 1322.65 726.34 1321.2 723.983C1320.11 722.22 1311.9 718.622 1311.65 715.991C1311.24 711.701 1312.91 707.207 1310.89 703.653L1307.5 703.036C1304.75 699.488 1307.94 697.137 1305.91 693.514L1302.4 693.374C1300.25 690.429 1303.55 682.852 1301.4 678.781C1300.9 678.669 1299.27 678.241 1298.91 678.16C1293.17 676.871 1298.49 658.261 1296.09 653.803C1293.73 653.085 1293.19 652.937 1291.11 651.624C1288.83 646.629 1290.23 611.931 1292.41 605.255L1296.1 603.902C1297.72 600.898 1295.12 586.81 1296.98 580.32C1306.5 579.037 1300.28 573.117 1301.88 566.552C1302.61 563.528 1306.34 566.318 1306.57 563.05C1306.87 558.696 1305.41 554.929 1306.6 550.767C1306.6 550.793 1311.7 549.074 1311.8 547.923C1312.08 544.918 1310.94 542.692 1312.62 540.13L1316.03 539.526C1318.44 536.437 1316.61 534.774 1317.13 531.679C1317.47 529.606 1325.03 525.294 1326.37 523.484C1327.92 521.404 1325.6 518.771 1327.34 515.552C1329.2 515.045 1329.99 514.992 1331.46 513.819C1331.33 505.759 1326.92 506.679 1322.2 502.462C1321.86 502.162 1317.64 486.48 1316.02 483.952L1312.68 483.307C1310.04 479.692 1313.23 477.348 1311.3 473.684C1301.88 473.72 1308.17 465.112 1306.19 457.722C1304.29 457.404 1304.1 457.356 1302.34 456.56C1301.32 451.534 1301.39 400.045 1302.47 394.634L1304.38 395.356C1309.09 392.987 1304.82 385.405 1306.74 379.786L1309.62 379.525C1314.59 375.811 1310.04 370.906 1311.98 363.963L1316.02 363.492C1318.73 358.749 1315.51 358.882 1317.73 354.468C1323.22 353.129 1321.21 351.947 1321.44 347.062C1321.58 344.126 1328.74 339.886 1331.18 338.057C1331.21 335.786 1331.14 335.624 1332.12 333.635C1333.87 333.137 1334.13 333.12 1335.98 333.037L1336.46 333.018C1336.98 325.666 1337.94 330.924 1341.96 327.822L1342.25 324.07C1349.6 320.463 1352.84 315.2 1357.72 308.74C1359.72 308.622 1360.02 308.675 1361.85 307.955L1361.81 304.705C1363.35 302.846 1368.47 304.115 1370.34 303.643C1370.41 303.626 1376.62 294.89 1377.3 294.516C1379.87 293.099 1382.49 295.298 1386.37 293.658C1387.77 287.572 1388.63 289.033 1394.1 286.915C1398 285.401 1402.1 284.121 1406.06 282.754C1407.32 273.769 1414.49 281.784 1421.4 277.978C1421.5 276.313 1421.39 275.785 1422.37 274.421C1429.94 272.927 1438.19 274.045 1445.91 273.021C1448.04 268.241 1454.13 268.36 1458.68 268.218L1458.88 269.399L1459.36 269.298L1454.35 271.415C1453.6 272.862 1453.61 272.944 1453.44 274.601L1453.41 275.01L1449.07 276.019L1444.58 276.283C1440.11 276.117 1433.93 275.561 1429.76 276.663L1428.55 277.827C1428.94 280.295 1428.52 279.361 1431.28 281.411L1427.97 281.659C1422.17 281.35 1414.5 279.952 1410.26 283.74C1409.65 284.282 1409.07 284.855 1408.51 285.457C1405.36 285.651 1401.86 285.47 1399.48 287.395L1398.97 290.563C1394.92 293.093 1391.39 290.417 1389.46 293.166C1391.05 295.143 1391.49 295.249 1393.87 296.183L1392.02 297.279C1386.46 296.377 1376.18 297.291 1374.53 303.788C1375.35 305.31 1375.37 305.464 1376.72 306.482C1374.85 306.804 1362.3 316.165 1360.63 317.953C1357.91 316.178 1358.19 315.791 1355.33 315.58C1353.83 318.496 1354.43 318.453 1354.73 322.275C1352.1 327.534 1349.63 324.866 1347.38 330.386L1345.83 330.972C1346.47 329.307 1346.35 328.857 1346.32 327.031L1344.89 326.164L1343.83 327.413L1344.73 330.736C1342.42 336.718 1340.82 336.02 1339.67 338.691L1337.11 336.077L1335.61 336.489C1332.45 344.67 1328.17 342.151 1329.71 347.487C1331.79 347.537 1331.18 347.482 1333.27 346.18C1332.41 351.833 1329.1 349.315 1327.7 356.833L1326.72 352.46L1325.33 351.755C1324 353.738 1324.25 354.454 1324.49 356.885L1326.14 359.61L1323.29 362.874L1322.28 358.684L1320.66 357.715C1318.05 361.335 1318.81 365.112 1322.2 367.88C1319.35 371.243 1318.57 371.979 1317.71 376.226C1317.35 372.992 1317.47 369.418 1315.52 367.254C1314.07 370.154 1313.52 379.537 1313.47 383.015C1313.53 385.121 1313.55 387.227 1313.54 389.333L1312.12 395.212C1311.65 388.771 1311.56 382.55 1311.45 376.095C1309.34 382.173 1307.11 390.127 1308.48 396.507L1308.29 400.697C1304.09 403.39 1301.16 413.794 1302.61 418.134L1303.3 418.56L1303.74 415.64C1306.65 413.712 1307.1 410.619 1308.1 406.9C1308.06 423.335 1308.88 438.924 1309.15 455.081C1307.7 458.462 1308.21 466.452 1309.81 469.705L1311.14 470.028C1312.01 468.548 1311.87 467.784 1311.96 466.008L1312.78 465.542L1315.48 467.478C1312.99 471.171 1311.85 476.599 1315.75 479.765L1318.86 479.974L1319.52 481.134L1321.56 480.583C1323.9 485.571 1327.41 493.191 1330.18 497.764C1336.92 508.868 1344.06 511.835 1332.8 523.934C1332.36 520.549 1332.87 520.028 1331 517.864C1328.51 520.494 1329.11 523.876 1332.17 525.897C1327.65 528.661 1329.32 529.392 1327.47 534.531L1326.55 527.963C1323.49 529.327 1323.47 531.904 1323.8 534.858L1325.47 535.784C1323.99 537.661 1323.95 538.116 1323.15 540.427C1322.69 538.116 1322.93 538.908 1321.25 536.963L1322.21 537.648L1320.95 536.917C1318.45 541.776 1322.8 544.136 1315.92 542.479C1312.46 545.685 1315.08 551.407 1314.54 552.153C1308.37 560.561 1307.72 561.863 1308.3 572.096L1308.24 572.987L1306.92 568.749L1305.59 568.43C1303.37 571.718 1303.61 582.787 1303.91 586.874L1303.4 592.608C1300.98 589.025 1302.87 587.174 1300.36 582.945L1300.64 583.624C1297.98 586.19 1298.28 600.223 1298.56 604.091C1298.22 621.462 1298.21 638.837 1298.53 656.208C1298.4 661.075 1297.57 670.696 1299.91 674.73L1301.36 675.401C1301.79 673.696 1302.38 670.458 1303.31 669.204L1304.11 674.557C1305.59 674.971 1306.65 674.645 1308.16 674.399C1307.94 681.06 1307.43 684.191 1310.56 690.07L1311.09 690.319C1314.5 696.204 1313.03 696.565 1314.74 701.038C1313.5 703.463 1313.95 708.443 1315.44 710.695L1316.66 709.993C1317.06 708.172 1317.4 706.341 1317.7 704.501C1318.33 707.022 1318.69 709.104 1320.14 711.295C1320.07 714.254 1317.49 717.907 1319.1 718.674C1328.2 723.009 1322.71 725.598 1325.25 729.947C1327.72 730.433 1328.4 730.856 1331.06 730.86L1331.73 732.061C1329.36 734.347 1330.07 733.209 1329.12 736.44C1330.01 741.074 1337.18 742.997 1340.05 749.973L1341.22 750.684L1341.89 749.816L1340.8 744.384C1341.87 745.839 1344.43 749.138 1345.05 750.581L1343.41 752.071L1343.38 753.758C1345.98 756.407 1347.4 756.242 1351.02 756.401C1352.49 757.873 1354.62 760.208 1356.32 761.229L1354.25 763.753L1354.55 765.274C1357.01 765.895 1357.38 765.961 1359.91 765.753L1360.57 766.18C1359.07 768.849 1358.99 769.191 1358.95 772.259C1360.44 775.344 1359.51 774.334 1362.45 776.074C1364.77 775.977 1364.98 776.069 1366.83 774.829L1367.61 773.016L1369.35 774.808C1369.15 778.254 1368.62 778.061 1370.05 780.637C1372.52 781.304 1373.23 781.008 1375.68 780.427L1380.54 784.321C1378.98 787.672 1379.13 786.294 1379.59 789.628C1381.98 791.239 1380.82 790.896 1384.31 790.438L1387.05 788.344C1389.26 790.072 1391.83 792.183 1394.07 793.789C1394.04 796.594 1394.02 796.992 1395.29 799.47C1398.14 801.377 1396.9 801.09 1399.97 800.865C1401.23 799.474 1401.17 799.935 1401.48 798.334C1407.34 802.396 1412.45 802.147 1413.33 805.542C1415.27 811.484 1417.94 811.985 1424.48 811.304C1423.94 814.089 1423.72 813.027 1425.24 815.286C1429.9 817.152 1434.92 817.857 1438.82 814.314L1439.38 816.53L1438.77 819.705C1442.4 821.753 1447.84 821.225 1452.18 821.217L1454.57 822.037L1454.81 824.842L1456.01 825.755C1458.32 823.98 1457.57 824.903 1458.77 822.081C1462.88 822.164 1468 821.892 1471.67 823.478C1471.7 825.159 1471.81 824.534 1470.48 826.134C1487.01 826.973 1523.57 827.387 1540.45 826.524C1561.55 826.785 1589.87 827.462 1610.5 826.551C1623.48 826.708 1636.46 826.773 1649.44 826.747ZM1295.21 646.085C1297.52 643.298 1297.24 616.008 1295.86 612.284L1293.89 611.341C1293.73 617.664 1291.83 642.071 1295.21 646.085ZM1539.01 830.635C1534.75 826.942 1523.47 828.047 1517.84 828.819C1522.11 832.501 1533.38 831.397 1539.01 830.635ZM1558.67 830.635C1554.32 826.863 1546.92 828.234 1540.82 828.663C1540.31 828.695 1539.79 828.747 1539.29 828.819C1543.63 832.578 1551.04 831.213 1557.14 830.789C1557.65 830.758 1558.16 830.706 1558.67 830.635ZM1607.08 829.868L1606.92 828.664C1603.77 828.279 1589.1 827.959 1586.37 828.802L1586.41 830.615C1592.19 830.511 1601.65 830.595 1607.08 829.868ZM1569.39 830.635C1565.62 827.31 1563.82 828.138 1558.94 828.819C1562.71 832.134 1564.52 831.308 1569.39 830.635ZM1518.46 830.635C1514.72 827.334 1512.91 828.141 1508.07 828.766C1510.61 830.861 1511.17 831.422 1514.92 831.071C1516.1 830.95 1517.28 830.805 1518.46 830.635ZM1640.69 829.472L1641.02 830.423L1641.63 830.121L1641.34 829.07L1640.69 829.472ZM1350.28 322.792L1350.62 323.742L1351.23 323.44L1350.94 322.389L1350.28 322.792ZM1635.33 829.472L1635.66 830.423L1636.27 830.121L1635.98 829.07L1635.33 829.472ZM1507.74 830.635C1504.23 827.529 1502.69 828.143 1498.18 828.819C1501.68 831.916 1503.23 831.303 1507.74 830.635ZM1568.77 828.819C1572.11 831.777 1573.62 831.993 1577.79 829.753L1576.68 828.464C1573.31 828.335 1572.11 828.371 1568.77 828.819ZM1309.73 692.777L1308.38 694.448C1308.74 697.595 1308.93 699.548 1311.54 701.719C1311.73 697.621 1311.54 696.729 1310.59 692.701L1309.73 692.777Z"/><path fill="#317260" fill-opacity="0.019607844" d="M817 661.053C817.425 664.212 816.903 663.477 818.534 665.511C827.462 666.254 843.877 665.788 853.29 665.794L919.178 665.81L967.167 665.787C974.619 665.779 981.965 665.797 989.425 665.549C997.039 665.296 997.985 661.972 1005.62 659.629C1005.77 658.082 1007.03 655.842 1007.75 654.355L1008.04 654.885C1007.63 657.627 1005.2 667.954 1001.97 668C939.037 668.901 875.885 668.713 812.923 668.089C811.966 668.08 810.678 665.44 809.937 664.862C808.107 663.432 806.093 662.75 804.069 661.413C797.375 650.797 799.65 626.156 799.713 613.41L799.771 550.941L799.71 486.352C799.701 476.045 799.575 465.345 799.822 454.996C799.905 451.561 805.019 448.863 805.032 447.31C805.076 442.15 804.137 436.257 805.316 430.939C806.785 429.901 806.993 429.815 808.698 429.154L809.134 428.988C811.087 423.366 808.74 416.901 810.521 409.809C816.05 408.408 814.702 406.054 814.896 401.612C815.05 398.116 816.609 400.036 819.427 397.705C819.061 390.558 818.293 390.772 823.895 388.185C825.092 387.632 825.481 381.081 825.716 379.184C826.015 379.27 826.314 379.355 826.613 379.441C826.869 379.802 829.757 379.617 829.819 379.5C834.986 369.795 832.402 367.276 841.14 359.652C846.248 355.194 852.8 349.43 857.674 344.532C865.541 336.627 874.197 327.307 882.013 319.248C881.928 319.335 889.351 319.363 889.745 318.807C891.664 316.106 894.705 310.703 897.029 308.749C898.796 307.263 902.953 309.526 905.982 307.737L906.106 304.131C909.679 302.226 911.073 305.137 915.461 302.665L916.082 299.259C919.754 296.322 920.632 299.85 925.099 297.403L925.91 293.742C930.037 292.151 934.903 294.896 939.995 293.035C940.859 291.08 940.936 290.638 941.365 288.526C944.529 286.742 953.213 288.543 957.227 288.1C960.949 287.69 958.979 286.385 961.298 283.235C972.248 281.907 993.659 281.386 1004.79 283.302C1007.49 283.766 1007.66 285.021 1008.69 287.058C1007.75 289.359 1007.34 289.772 1005.23 291.072C1006.04 290.951 1006.71 290.393 1006.98 289.621C1007.25 288.85 1007.07 287.992 1006.52 287.392C1005.96 286.793 1005.12 286.55 1004.33 286.761C1003.2 287.063 1002.5 288.194 1002.74 289.339C1002.98 290.485 1004.07 291.245 1005.23 291.072L1005.5 296.73C1004.4 297.071 1004.25 297.003 1003.1 297.004C1002.69 294.958 1002.25 293.162 1001.73 291.155L994.195 290.394C994.057 289.637 993.637 286.496 993.191 286.201C988.837 283.325 967.27 285.202 963.375 287.704L963.363 288.973C967.092 290.257 969.541 288.959 972.212 290.619L965.936 291.78C961.328 291.272 946.81 289.968 943.699 293.054L943.851 294.416C945.831 295.062 946.851 295.03 948.062 296.433L946.192 296.802C942.254 296.69 937.41 296.278 933.695 297.292L933.542 298.458C935.403 299.512 936.083 299.676 938.148 300.267C934.534 301.266 934.214 300.729 932.076 303.084C928.186 301.994 922.036 299.47 918.841 303.701C917.923 304.918 918.319 305.473 916.789 306.589C909.827 307.679 908.897 307.726 903.713 312.235L903.587 313.938C904.192 314.537 905.146 315.554 905.782 316.037C903.165 316.52 894.582 323.208 891.094 324.818L890.578 322.395C885.104 320.458 878.642 325.98 878.217 331.36L880.043 333.162L877.51 335.459L876.197 332.213L874.409 331.85C872.484 333.873 873.09 332.977 872.541 336.36L873.161 337.435C872.352 339.833 859.536 351.165 857.559 352.364L857.057 354.146L855.868 351.76L853.972 351.465L852.686 352.742L853.114 354.453L855.751 355.401C853.059 358.225 850.724 362.636 847.487 366.202L845.853 362.654L844.19 362.174C838.078 366.918 839.337 372.628 836.786 378.388L835.075 376.233C830.401 376.519 828.285 387.297 828.319 391.254C826.471 391.709 826.131 391.823 824.245 391.824C822.296 395.19 818.499 405.693 817.126 409.773C816.763 410.85 817.785 415.565 818.106 417.04L817.08 422.749C816.136 420.844 815.873 419.93 815.715 417.809L814.057 417.478C812.318 419.207 812.155 421.854 812.278 424.231C812.931 436.887 802.46 433.66 807.406 452.432C807.69 456.65 807.284 459.935 806.892 464.105C806.032 460.131 806.194 454.626 804.701 452.39C801.67 455.813 801.347 475.362 801.659 480.776L802.122 481.116C803.292 477.779 804.341 473.555 806.907 471.294C806.834 488.202 805.83 647.631 808.659 652.79C811.019 653.562 811.685 653.823 813.233 655.782C814.104 657.901 813.893 658.328 813.633 660.697C813.666 664.224 813.089 663.678 814.978 665.72L816.125 664.691L815.765 661.025L817 661.053ZM849.51 358.967L850.469 357.15L848.626 358.023L847.307 359.537L849.51 358.967ZM870.331 338.382L870.86 337.015L869.744 337.312L868.978 338.606L870.331 338.382Z"/><defs><linearGradient id="gradient_0" gradientUnits="userSpaceOnUse" x1="266.44388" y1="668.66522" x2="265.24222" y2="647.99506"><stop offset="0" stop-color="#307161" stop-opacity="0.69411767"/><stop offset="1" stop-color="#30725F" stop-opacity="0.75294119"/></linearGradient></defs><path fill="url(#gradient_0)" d="M79.2593 655.669C168.569 657.021 257.891 657.306 347.208 656.526C363.141 656.546 454.347 658.639 465.107 655.042L466.514 651.962C468.504 650.547 467.537 650.873 470.548 651.182L471.106 652.245C470.578 659.1 462.592 661.007 456.573 661.12C436.333 661.501 416.018 661.269 395.761 661.28L271.12 661.318L152.84 661.352C135.593 661.383 105.451 662.334 88.9985 661.05C86.2873 660.82 83.5902 660.448 80.9181 659.936C81.3688 658.826 82.0494 658.135 82.8078 657.21L79.2593 655.669Z"/><path fill="#317260" fill-opacity="0.96078432" d="M1001.52 296.364C1003.09 307.842 1002.41 332.032 1002.39 344.329L1002.28 453.852C1002.27 464.505 1001.54 496.833 1002.57 505.641C1002.36 514.521 1002.22 523.572 1002.35 532.449C1002.92 571.885 1001.64 611.61 1001.95 650.995L1001.95 653.761C999.606 654.382 998.688 654.515 996.639 655.956C997.753 641.206 997.17 619.81 997.172 604.624L997.131 514.372C997.065 442.73 998.542 366.973 996.853 295.692L1001.52 296.364Z"/><defs><linearGradient id="gradient_1" gradientUnits="userSpaceOnUse" x1="737.88232" y1="471.55215" x2="749.61798" y2="471.19476"><stop offset="0" stop-color="#30725F" stop-opacity="0.7764706"/><stop offset="1" stop-color="#317260" stop-opacity="0.86274511"/></linearGradient></defs><path fill="url(#gradient_1)" d="M741.156 290.203L746.391 291.248L746.807 350.721C746.802 364.154 746.374 380.588 747.026 393.8C745.419 435.916 746.758 486.52 746.682 529.502L746.642 603.531C746.678 613.806 746.291 629.026 746.932 639.042C746.85 643.599 747.373 650.499 745.001 654.066L740.988 655.704L741.301 651.725C742.419 644.725 741.832 618.091 741.79 610.237L741.654 530.433L741.887 375.812C741.885 351.209 742.736 320.283 741.414 296.274L741.156 290.203Z"/><path fill="#317260" fill-opacity="0.96078432" d="M1047.26 503.582L1047.18 367.553C1047.18 356.667 1046.03 296.781 1049.66 291.491L1053.19 290.894C1050.56 323.783 1051.94 375.859 1052.17 408.793L1052.13 576.025L1052.13 630.324C1052.14 635.303 1052.45 651.295 1051.86 655.572L1050.12 655.49C1049.53 652.254 1048.28 651.011 1047.39 644.778L1047.26 503.582Z"/><path fill="#317260" fill-opacity="0.52549022" d="M1467.87 280.656C1468.7 282.179 1469.12 282.8 1469.57 284.462L1469.91 283.95L1469.78 283.626L1471.17 284.271L1472.41 283.199C1473.68 294.765 1472.97 311.591 1472.89 323.66L1472.96 379.362L1472.82 501.669C1472.82 510.093 1474.09 558.266 1471.82 562.03L1469.21 562.345L1467.93 566.002L1467.95 560.239C1469.62 489.008 1467.42 417.019 1468.26 345.702C1468.52 324.263 1468.54 302.057 1467.87 280.656Z"/><path fill="#317260" fill-opacity="0.67843139" d="M1237.49 449.184L1239.11 454.883C1240.57 455.26 1239.78 455.266 1241.47 454.315C1243.44 458.132 1243.52 644.071 1241.51 654.733L1239.47 653.255L1237.64 654.607C1237.16 652.419 1237.46 636.695 1237.48 633.791L1237.73 586.517L1237.67 494.103C1237.62 479.993 1236.92 462.988 1237.49 449.184Z"/><path fill="#317260" fill-opacity="0.41960785" d="M1001.73 291.155C1002.25 293.162 1002.69 294.958 1003.1 297.004C1004.25 297.003 1004.4 297.071 1005.5 296.73L1006.59 297.573C1007.43 306.918 1006.97 317.767 1007.02 327.274C1007.19 344.861 1007.22 362.45 1007.09 380.038C1006.91 404.248 1007.87 431.896 1007.02 455.599C1005.29 459.023 1005.82 533.728 1005.73 543.298C1004.79 535.654 1004.14 508.422 1002.57 505.641C1001.54 496.833 1002.27 464.505 1002.28 453.852L1002.39 344.329C1002.41 332.032 1003.09 307.842 1001.52 296.364L1001.73 291.155Z"/><path fill="#317260" fill-opacity="0.78039217" d="M807.406 452.432C811.782 450.337 811.433 447.356 812.22 442.917C813.068 455.51 811.477 477.071 811.453 490.784L811.809 602.342C811.839 614.454 811.264 645.209 813.233 655.782C811.685 653.823 811.019 653.562 808.659 652.79C805.83 647.631 806.834 488.202 806.907 471.294C807.005 469.188 806.905 466.279 806.892 464.105C807.284 459.935 807.69 456.65 807.406 452.432Z"/><path fill="#317260" fill-opacity="0.90980393" d="M95.9156 439.556C102.634 442.183 139.739 441.233 149.231 441.227L247.652 441.302C263.497 441.217 291.037 440.2 306.188 441.251C304.957 443.632 304.992 444.721 302.597 445.307C298.208 446.381 291.434 445.901 286.898 445.782C223.99 446.201 161.079 446.17 98.1713 445.69L96.1276 445.699L95.9156 439.556Z"/><path fill="#317260" fill-opacity="0.95294118" d="M96.5125 291.659C121.163 290.81 147.725 291.232 172.491 291.212L313.03 291.47L412.363 291.344C430.943 291.317 449.548 291.168 468.124 291.707C470.292 291.77 472.545 292.178 474.116 293.785C476.761 296.164 476.449 298.82 476.772 302.179C475.775 305.493 472.9 307.86 470.408 310.329C470.502 306.206 470.303 304.689 472.387 301.219L472.454 301.894C473.256 299.305 474.22 298.003 473.413 295.953C462.809 293.92 439.911 294.441 428.435 294.382L323.312 294.728C312.958 294.71 284.44 295.049 275.632 293.875L284.577 293.069C245.993 291.277 204.306 293.389 165.385 292.624C158.315 292.485 109.589 292.211 104.564 293.152L106.206 293.41L105.336 293.52C103.231 293.801 97.2206 295.19 96.8587 296.634C94.3833 306.508 96.8222 327.532 95.4812 337.272C94.5687 330.455 93.4674 297.004 96.5125 291.659Z"/><path fill="#317260" fill-opacity="0.69411767" d="M1508.53 390.163C1511.18 381.062 1508.98 344.816 1510.48 339.587C1513.45 344.474 1509.5 370.663 1512.81 379.479C1513.96 394.084 1512.98 418.094 1512.98 433.468L1513.15 550.856C1513.14 555.594 1513.31 562.01 1513.06 566.617C1510.55 566.506 1510.55 566.916 1508.85 565.717C1507.57 509.202 1507.94 446.846 1508.53 390.163Z"/><defs><linearGradient id="gradient_2" gradientUnits="userSpaceOnUse" x1="555.17322" y1="393.66367" x2="551.24512" y2="393.61536"><stop offset="0" stop-color="#30725F" stop-opacity="0.89411765"/><stop offset="1" stop-color="#317260" stop-opacity="0.96862745"/></linearGradient></defs><path fill="url(#gradient_2)" d="M551.322 297.941C551.587 292.74 551.261 292.452 555.774 290.222L556.117 295.927C555.395 331.831 555.298 368.789 554.975 404.761C554.721 433.078 557.095 462.226 556.231 490.688C556.252 493.953 556.312 498.2 555.861 501.402C554.622 501.493 553.708 501.552 552.483 501.828L551.664 502.018C552.101 495.314 551.485 485.397 551.304 478.427C552.647 459.625 551.25 425.549 551.226 405.769C551.184 370.244 551.95 333.278 551.322 297.941Z"/><path fill="#317260" fill-opacity="0.60392159" d="M1047.39 644.778C1048.28 651.011 1049.53 652.254 1050.12 655.49L1051.86 655.572C1066.44 657.25 1096.34 656.456 1112.08 656.408L1204.11 656.405C1211.79 656.347 1231.09 655.309 1237.8 655.711L1236.44 659.554C1229.11 663.831 1133.01 659.896 1117.68 661.223C1111.9 661.723 1059.69 661.496 1054.14 660.202C1053.86 658.347 1053.86 658.448 1052.74 656.916C1050.54 656.972 1050.1 657.11 1048.09 656.347L1047.6 654.219C1047.34 651.404 1047.41 647.683 1047.39 644.778Z"/><path fill="#317260" fill-opacity="0.50980395" d="M1001.95 653.761C1000.87 657.489 1000.37 656.89 996.711 659.829C984.394 662.028 961.053 661.327 947.44 661.315L857.411 661.24C846.722 661.23 826.568 660.427 817 661.053L815.765 661.025L813.633 660.697C813.893 658.328 814.104 657.901 813.233 655.782C828.143 656.638 844.457 656.844 859.442 656.459C904.865 655.293 951.332 657.826 996.639 655.956C998.688 654.515 999.606 654.382 1001.95 653.761Z"/><path fill="#317260" fill-opacity="0.38431373" d="M98.1713 445.69C161.079 446.17 223.99 446.201 286.898 445.782C284.464 446.929 284.599 447.299 283.088 449.686C274.671 451.176 257.415 450.884 248.488 450.911L192.586 450.982L135.919 450.968C126.754 450.954 109.957 451.298 101.358 449.958L101.857 447.687L98.1713 445.69Z"/><path fill="#317260" fill-opacity="0.16862746" d="M747.026 393.8C749.833 386.805 748.06 320.517 748.431 307.635C748.804 331.04 748.696 354.915 748.485 378.342C748.187 411.335 750.871 444.245 750.158 477.217C750.217 466.886 749.876 428.163 751.514 419.799C752.699 442.33 751.562 471.498 751.783 494.486C751.952 512.179 752.346 548.728 749.937 565.179C749.739 560.087 749.62 554.652 749.29 549.599C748.213 565.552 748.333 594.762 748.948 611.088C748.901 615.278 748.978 637.027 748.442 640.074L746.932 639.042C746.291 629.026 746.678 613.806 746.642 603.531L746.682 529.502C746.758 486.52 745.419 435.916 747.026 393.8Z"/><path fill="#317260" fill-opacity="0.50196081" d="M1042.85 444.679C1041.45 419.65 1043.47 387.442 1042.62 361.98C1042.37 354.46 1042.28 301.724 1043.67 297.071C1045.15 296.982 1045.59 296.901 1047.05 296.599C1047.13 293.739 1046.81 291.277 1050 290.115C1058.95 286.852 1080.61 288.921 1089.17 292.08C1090.05 293.916 1090.68 294.594 1092.26 295.866C1083.57 295.896 1086.07 293.014 1080.15 291.86C1072.11 290.293 1061.55 290.832 1053.19 290.894L1049.66 291.491C1046.03 296.781 1047.18 356.667 1047.18 367.553L1047.26 503.582L1044.65 503.123C1044.74 493.925 1046.92 444.735 1044.37 438.463L1042.85 444.679Z"/><path fill="#317260" fill-opacity="0.41960785" d="M551.304 478.427C549.899 469.581 547.555 468.025 546.926 457.476C545.837 439.23 546.233 421.575 546.34 403.364L546.133 348.426C546.15 334.134 545.745 316.387 546.867 302.001C547.027 299.953 549.41 299.095 551.322 297.941C551.95 333.278 551.184 370.244 551.226 405.769C551.25 425.549 552.647 459.625 551.304 478.427Z"/><path fill="#2F7160" fill-opacity="0.47843137" d="M1448.66 816.695C1460.54 816.46 1469.67 821.673 1482.85 821.788C1505.91 821.988 1647.72 819.689 1656.59 823.324C1658.48 825.36 1659.87 826.872 1662.89 826.341C1671.82 824.771 1673.31 830.254 1679.34 832.185C1662.36 832.104 1668.46 826.783 1649.44 826.747C1636.46 826.773 1623.48 826.708 1610.5 826.551C1611.74 825.118 1613.01 825.469 1615.41 825.188L1615.85 824.39C1608.52 819.898 1552.95 825.25 1540.45 826.524C1523.57 827.387 1487.01 826.973 1470.48 826.134C1471.81 824.534 1471.7 825.159 1471.67 823.478C1468 821.892 1462.88 822.164 1458.77 822.081L1454.57 822.037L1452.18 821.217L1451.63 818.337L1448.66 816.695Z"/><path fill="#317260" fill-opacity="0.71372551" d="M96.1276 445.699C95.1887 442.746 94.5795 442.845 92.1739 441.072C91.8059 440.801 90.9604 440.282 90.9656 439.919C91.3742 411.577 87.8227 314.427 91.3495 292.17C93.0166 290.649 94.1884 290.9 96.7483 290.439L96.5125 291.659C93.4674 297.004 94.5687 330.455 95.4812 337.272C94.9278 357.407 95.3521 378.805 95.2665 399.024C95.2233 409.231 94.797 430.075 95.9156 439.556L96.1276 445.699Z"/><path fill="#317260" fill-opacity="0.57254905" d="M470.367 495.835C471.522 496.138 475.212 496.883 475.217 497.443C475.429 520.093 477.454 639.315 474.894 651.417C473.583 651.424 473.102 651.451 471.781 651.249L471.106 652.245L470.548 651.182C471.983 611.121 470.524 570.346 471.165 530.206C471.339 519.294 471.577 506.585 470.367 495.835Z"/><path fill="#317260" fill-opacity="0.43529412" d="M226.361 286.105C263.113 285.764 299.868 285.723 336.622 285.983C354.868 285.949 388.155 284.855 405.37 286.073L404.729 286.275C399.884 287.773 397.33 286.431 394.428 289.135L394.12 290.314C337.369 291.3 278.331 290.484 221.366 290.347C229.402 288.124 246.953 289.734 257.152 288.714C250.91 287.173 229.86 288.532 226.361 286.105Z"/><path fill="#317260" fill-opacity="0.34509805" d="M1002.57 505.641C1004.14 508.422 1004.79 535.654 1005.73 543.298C1005.82 533.728 1005.29 459.023 1007.02 455.599C1007.88 472.361 1007.95 643.396 1005.85 648.014L1004.48 647.111L1003.13 647.416C1002.91 648.133 1002.22 650.454 1001.95 650.995C1001.64 611.61 1002.92 571.885 1002.35 532.449C1002.22 523.572 1002.36 514.521 1002.57 505.641Z"/><path fill="#317260" fill-opacity="0.4627451" d="M1044.65 503.123L1047.26 503.582L1047.39 644.778C1047.41 647.683 1047.34 651.404 1047.6 654.219C1046.22 651.358 1043.26 649.596 1043.07 646.564C1042.08 630.952 1042.61 614.113 1042.61 598.379L1042.66 503.93L1044.65 503.123Z"/><path fill="#317260" fill-opacity="0.90196079" d="M599.046 35.3595L618.769 35.3357C623.219 35.3304 632.685 34.5201 636.368 37.5881C637.123 38.2174 637.347 39.426 638.188 40.2464C624.708 42.0463 607.932 38.0347 591.334 40.8636C589.824 60.8185 591.519 85.2487 591.461 105.507C591.442 112.203 592.139 122.256 591.703 128.652C590.448 125.891 590.782 126.68 587.962 124.804C585.277 112.906 586.029 52.2516 586.568 39.0919L587.512 36.533C590.676 35.0103 595.405 35.373 599.046 35.3595Z"/><defs><linearGradient id="gradient_3" gradientUnits="userSpaceOnUse" x1="1457.6617" y1="619.18494" x2="1460.7123" y2="637.38629"><stop offset="0" stop-color="#2D7260" stop-opacity="0.035294119"/><stop offset="1" stop-color="#32735F" stop-opacity="0.14117648"/></linearGradient></defs><path fill="url(#gradient_3)" d="M1394.75 630.603C1395.04 629.564 1395.51 628.51 1395.92 627.5C1402.39 623.251 1410.67 628.066 1417.46 627.423C1448.49 624.486 1480.17 627.692 1511.06 626.407L1511.73 628.717C1510.06 630.496 1510.22 630.006 1507.48 630.467C1513.84 630.54 1534.68 631.151 1540.09 630.31L1546.35 631.644L1527.1 631.836C1499.52 631.217 1471.02 631.551 1443.37 631.552C1428.02 631.619 1411.54 632.056 1396.36 630.999L1394.75 630.603Z"/><path fill="#317260" fill-opacity="0.14509805" d="M289.67 496.243L289.862 492.435C293.132 490.605 466.274 490.469 469.219 492.397C469.29 493.987 469.391 494.064 468.782 495.595C465.487 496.406 463.744 496.193 460.374 496.051C459.705 495.506 457.311 493.915 456.741 493.985C438.228 496.245 348.141 489.986 336.67 496.058C323.254 496.86 303.558 496.242 289.67 496.243Z"/><path fill="#317260" fill-opacity="0.95294118" d="M690.238 290.353L693.948 290.66C706.708 290.528 719.47 290.533 732.231 290.676L740.087 290.504L741.156 290.203L741.414 296.274C738.555 295.207 731.806 292.621 728.989 292.563C709.707 292.184 690.371 292.629 671.077 292.479C662.462 292.411 653.869 292.389 645.294 293.3L659.018 292.99C652.514 294.308 641.703 294.348 634.847 294.678C611.134 295.821 578.996 292.572 556.117 295.927L555.774 290.222C556.881 290.412 559.613 290.491 560.868 290.564C594.367 290.891 637.234 291.664 670.203 290.387C677.175 290.551 683.275 290.606 690.238 290.353Z"/><path fill="#317260" fill-opacity="0.24313726" d="M746.391 291.248C746.833 293.567 747.247 295.762 747.591 298.101L747.978 297.946C749.172 297.48 749.461 297.293 750.777 297.282C752.411 303.525 752.074 345.028 751.84 354.034C751.305 374.652 752.398 399.566 751.514 419.799C749.876 428.163 750.217 466.886 750.158 477.217C750.871 444.245 748.187 411.335 748.485 378.342C748.696 354.915 748.804 331.04 748.431 307.635C748.06 320.517 749.833 386.805 747.026 393.8C746.374 380.588 746.802 364.154 746.807 350.721L746.391 291.248Z"/><path fill="#317260" fill-opacity="0.71764708" d="M1723.55 791.398C1724.55 792.558 1727.81 794.573 1727.82 794.77C1728.57 807.175 1730.97 851.794 1726.35 861.336L1726.12 859.847C1725.53 862.636 1723.01 876.613 1721.79 877.959C1719.45 877.232 1716.79 876.677 1714.99 875.141C1712.42 866.804 1715.55 863.761 1704.61 854.667L1704.61 850.741C1710.32 853.198 1712.44 859.77 1716.85 860.561C1728.28 856.712 1722.89 802.649 1723.55 791.398Z"/><path fill="#317260" fill-opacity="0.43529412" d="M560.868 290.564C566.303 283.653 601.58 285.855 611.455 285.849C635.099 285.708 658.744 285.795 682.386 286.109C678.806 288.633 661.474 287.099 656.767 288.642C661.826 289.496 665.432 289.702 670.203 290.387C637.234 291.664 594.367 290.891 560.868 290.564Z"/><path fill="#317260" fill-opacity="0.87450981" d="M741.564 141.211L744.942 140.886C747.72 145.383 746.875 157.806 746.784 163.625C746.871 183.59 746.838 203.556 746.686 223.521C746.443 227.009 746.995 227.638 745.227 229.97C743.229 230.272 741.413 230.527 739.396 230.739C739.984 229.323 741.159 227.388 741.941 226.002C742.614 207.078 741.404 186.218 741.575 167.241C741.65 158.833 740.879 149.538 741.564 141.211Z"/><path fill="#317260" fill-opacity="0.85882354" d="M1443.37 631.552C1471.02 631.551 1499.52 631.217 1527.1 631.836C1530.43 634.342 1539.2 634.7 1543.45 634.957C1539.03 635.146 1536.46 635.176 1532.08 636.184C1529.7 636.454 1526.44 636.321 1523.95 636.275C1495.88 635.749 1467.58 636.793 1439.53 636.106C1430.15 635.267 1424.11 634.927 1414.61 634.939C1424.21 634.796 1434.73 634.565 1444.2 632.849L1443.37 631.552Z"/><path fill="#317260" fill-opacity="0.83529413" d="M180.852 290.277C194.356 290.51 207.862 290.534 221.366 290.347C278.331 290.484 337.369 291.3 394.12 290.314L450.222 290.512C458.768 290.528 471.051 290.957 479.086 290.41L482.995 291.533C484.084 295.191 479.926 300.446 476.772 302.179C476.449 298.82 476.761 296.164 474.116 293.785C472.545 292.178 470.292 291.77 468.124 291.707C449.548 291.168 430.943 291.317 412.363 291.344L313.03 291.47L172.491 291.212C147.725 291.232 121.163 290.81 96.5125 291.659L96.7483 290.439L97.1293 290.348C120.582 291.067 157.42 291.138 180.852 290.277Z"/><path fill="#317260" fill-opacity="0.63529414" d="M1508.53 390.163C1507.75 371.418 1508.84 348.89 1508.44 329.837C1508.23 320.148 1507.97 290.311 1509.67 282.028L1511.79 281.719C1512.09 282.323 1512.49 282.94 1512.67 283.592C1512.36 282.04 1512.54 282.397 1513.39 280.611C1513.71 283.267 1513.31 311.168 1513.15 315.898C1512.44 335.704 1513.98 360.319 1512.81 379.479C1509.5 370.663 1513.45 344.474 1510.48 339.587C1508.98 344.816 1511.18 381.062 1508.53 390.163Z"/><path fill="#317260" fill-opacity="0.3764706" d="M586.568 39.0919C586.029 52.2516 585.277 112.906 587.962 124.804C590.782 126.68 590.448 125.891 591.703 128.652L591.557 134.794C591.695 134.804 590.136 134.713 590.241 134.676C589.899 134.797 586.782 133.344 586.781 133.342C585.319 126.65 586.562 119.012 585.743 112.162C585.715 111.935 582.552 107.232 582.178 106.682C580.512 91.0727 581.551 59.9637 581.934 43.0866C581.977 41.1912 584.573 40.271 586.568 39.0919Z"/><path fill="#317260" fill-opacity="0.4509804" d="M405.37 286.073C414.444 285.451 473.219 285.078 478.487 287.446C479.313 289.264 479.303 288.603 479.086 290.41C471.051 290.957 458.768 290.528 450.222 290.512L394.12 290.314L394.428 289.135C397.33 286.431 399.884 287.773 404.729 286.275L405.37 286.073Z"/><path fill="#317260" fill-opacity="0.95686275" d="M1663.83 385.389L1667.38 384.91C1668.81 386.954 1668.28 387.534 1668.25 390.471C1667.41 398.384 1668.68 414.723 1668.81 423.727C1668.92 431.819 1667.39 450.582 1668.25 456.856L1668.1 462.865L1667.21 463.268L1665.31 462.395L1663.71 463.955C1662.75 454.475 1664.1 434.835 1664.05 424.271C1664.01 414.445 1662.75 393.658 1663.83 385.389Z"/><path fill="#317260" fill-opacity="0.42745098" d="M97.1293 290.348C97.3386 289.615 97.9884 288.379 98.3411 287.64C102.356 284.885 201.301 285.922 214.161 286.1C208.393 290.421 145.256 285.011 143.47 289.453C153.426 290.234 172.53 288.667 180.852 290.277C157.42 291.138 120.582 291.067 97.1293 290.348Z"/><defs><linearGradient id="gradient_4" gradientUnits="userSpaceOnUse" x1="1693.735" y1="298.16415" x2="1692.645" y2="307.58249"><stop offset="0" stop-color="#2F745A" stop-opacity="0"/><stop offset="1" stop-color="#307362" stop-opacity="0.035294119"/></linearGradient></defs><path fill="url(#gradient_4)" d="M1663.46 295.976L1664.07 299.196C1669.05 301.734 1705.12 300.292 1713.78 300.503C1718.43 301.134 1723.63 301.514 1727.81 303.517L1727.03 304.191C1716.64 304.678 1661.12 309.775 1657.22 300.062C1659.77 296.514 1658.43 297.564 1662.92 296.164L1663.46 295.976Z"/><path fill="#317260" fill-opacity="0.95686275" d="M1308.18 585.347C1309.64 595.638 1307.11 618.678 1307.25 630.491C1307.34 638.269 1308.61 653.237 1308.08 659.814C1307.73 656.782 1307.64 654.401 1306.38 651.611L1304.49 651.86L1304.76 652.612L1304.24 652.647L1303.07 646.476C1302.48 631.789 1303.83 616.131 1302.95 602.165C1302.8 600.091 1303.25 594.93 1303.4 592.608L1303.91 586.874C1306.01 586.618 1306.32 586.397 1308.18 585.347Z"/><path fill="#2F7160" fill-opacity="0.76078433" d="M1664 295.197C1685.67 298.212 1717.67 293.115 1737.41 294.863C1724.96 296.637 1723.66 300.821 1713.78 300.503C1705.12 300.292 1669.05 301.734 1664.07 299.196L1663.46 295.976L1664 295.197Z"/><path fill="#317260" fill-opacity="0.95686275" d="M1419.15 561.064C1431.72 560.297 1455.65 562.892 1466.35 559.655L1467.95 560.239L1467.93 566.002L1462.85 570.724C1459.88 570.816 1452.88 571.412 1450.87 569.542C1446.11 565.094 1434.34 567.279 1428.02 565.292C1424.99 564.339 1422.4 562.529 1419.15 561.064Z"/><path fill="#317260" fill-opacity="0.80784315" d="M1312.12 395.212L1313.54 389.333C1314.28 397.678 1312.65 415.574 1312.78 425.465C1312.88 432.226 1314.13 457.855 1313.51 462.309C1312.72 459.407 1313.53 457.524 1311.65 454.798L1309.15 455.081C1308.88 438.924 1308.06 423.335 1308.1 406.9L1308.29 400.697L1308.48 396.507L1311.78 396.466L1312.12 395.212Z"/><path fill="#317260" fill-opacity="0.13333334" d="M336.67 496.058C348.141 489.986 438.228 496.245 456.741 493.985C457.311 493.915 459.705 495.506 460.374 496.051C447.275 496.805 428.73 496.24 415.309 496.244C389.096 496.345 362.883 496.283 336.67 496.058Z"/><path fill="#317260" fill-opacity="0.68235296" d="M1740.3 176.046C1743.24 175.198 1749.84 174.938 1753.14 174.705C1753.75 172.764 1753.73 172.6 1755.21 171.309C1762.08 170.513 1804.49 169.845 1809 171.977L1809.76 174.737C1806.37 175.628 1745.09 176.507 1740.3 176.046Z"/><path fill="#317260" fill-opacity="0.45490196" d="M214.161 286.1C218.404 285.927 222.103 285.689 226.361 286.105C229.86 288.532 250.91 287.173 257.152 288.714C246.953 289.734 229.402 288.124 221.366 290.347C207.862 290.534 194.356 290.51 180.852 290.277C172.53 288.667 153.426 290.234 143.47 289.453C145.256 285.011 208.393 290.421 214.161 286.1Z"/><path fill="#317260" fill-opacity="0.68627453" d="M1302.95 602.165C1303.83 616.131 1302.48 631.789 1303.07 646.476C1303.1 649.749 1303.3 655.057 1302.94 658.146C1301.13 657.101 1300.52 656.871 1298.53 656.208C1298.21 638.837 1298.22 621.462 1298.56 604.091L1299.66 604.532L1302.95 602.165Z"/><path fill="#317260" fill-opacity="0.6901961" d="M1668.25 390.471C1668.57 393.993 1668.69 397.471 1669.98 400.76C1670.82 401.426 1671.46 401.916 1672.36 402.53C1674.38 409.548 1674.44 437.225 1672.52 445.598C1672.31 446.507 1670.65 446.958 1670.39 447.286C1668.71 449.362 1668.5 454.307 1668.25 456.856C1667.39 450.582 1668.92 431.819 1668.81 423.727C1668.68 414.723 1667.41 398.384 1668.25 390.471Z"/><path fill="#317260" fill-opacity="0.93333334" d="M741.941 226.002C741.159 227.388 739.984 229.323 739.396 230.739C726.216 229.878 708.86 232.08 695.402 229.937C691.944 229.386 691.999 228.566 690.263 225.925C700.783 225.11 735.464 227.694 741.941 226.002Z"/><path fill="#317260" fill-opacity="0.32941177" d="M746.784 163.625L749.998 161.693C752.905 164.751 751.728 170.669 751.479 174.816L750.236 173.758C746.927 183.216 750.374 207.486 750.143 217.544L751.619 213.864C751.736 216.884 752.391 221.917 750.725 224.138C748.622 224.583 749.06 224.338 746.686 223.521C746.838 203.556 746.871 183.59 746.784 163.625Z"/><path fill="#2F7160" fill-opacity="0.43921569" d="M1540.45 826.524C1552.95 825.25 1608.52 819.898 1615.85 824.39L1615.41 825.188C1613.01 825.469 1611.74 825.118 1610.5 826.551C1589.87 827.462 1561.55 826.785 1540.45 826.524Z"/><path fill="#317260" fill-opacity="0.74901962" d="M1662.92 296.164C1660.3 295.88 1661 296.355 1659.62 294.748C1658.17 286.956 1658.64 264.754 1659.84 256.518L1663.9 255.528C1664.31 268.781 1663.3 281.918 1664 295.197L1663.46 295.976L1662.92 296.164Z"/><path fill="#317260" fill-opacity="0.87450981" d="M994.195 290.394L1001.73 291.155L1001.52 296.364L996.853 295.692C989.09 293.458 971.629 296.576 961.573 295.914C962.784 295.026 964.782 292.918 965.936 291.78L972.212 290.619C979.448 290.706 986.938 290.5 994.195 290.394Z"/><path fill="#2F7160" fill-opacity="0.011764706" d="M599.046 35.3595L603.146 34.3374C597.631 33.324 591.531 34.8545 587.279 33.297L587.592 31.9293C590.463 30.364 593.768 31.9046 596.649 31.5562C598.319 31.3542 598.266 30.0911 601.558 29.9218C612.477 29.3605 624.009 31.3302 634.764 31.4894L635.313 32.7412C631.387 35.9919 622.418 32.2645 618.779 34.717L618.769 35.3357L599.046 35.3595Z"/><path fill="#317260" fill-opacity="0.031372551" d="M1511.06 626.407C1515.58 625.913 1554.42 626.828 1557.09 628.166L1557.22 629.665C1552.49 630.276 1542.1 629.243 1540.09 630.31C1534.68 631.151 1513.84 630.54 1507.48 630.467C1510.22 630.006 1510.06 630.496 1511.73 628.717L1511.06 626.407Z"/><path fill="#317260" fill-opacity="0.85882354" d="M702.958 651.362C712.919 650.776 734.199 653.297 741.301 651.725L740.988 655.704C735.575 656.88 728.315 656.554 722.635 656.515C718.661 656.461 713.216 656.535 709.36 656.045C705.281 655.527 705.056 654.246 702.958 651.362Z"/><path fill="#317260" fill-opacity="0.91764706" d="M1513.15 550.856C1513.67 553.902 1514.11 556.961 1514.48 560.031L1517.7 558.094C1518.1 560.993 1518.13 562.33 1518.11 565.246C1521.76 565.965 1527.43 565.441 1531.3 565.25C1532.23 563.87 1532.16 563.849 1532.46 562.292C1536.07 560.871 1552.7 560.571 1556.36 561.111C1552.87 568.116 1544.85 566.435 1537.49 566.489C1532.97 565.925 1518.11 566.412 1513.06 566.617C1513.31 562.01 1513.14 555.594 1513.15 550.856Z"/><path fill="#2F7160" fill-opacity="0.4509804" d="M1042.85 444.679L1044.37 438.463C1046.92 444.735 1044.74 493.925 1044.65 503.123L1042.66 503.93C1042.68 484.911 1042.18 463.519 1042.85 444.679Z"/><path fill="#317260" fill-opacity="0.49803922" d="M1813.95 176.886C1814.71 177.066 1817.43 177.505 1817.65 178.083C1820.41 185.591 1819.9 203.185 1817.85 210.469C1816.69 210.504 1814.96 210.401 1814.03 210.882L1813.95 203.786C1814.23 195.33 1814.04 185.36 1813.95 176.886Z"/><path fill="#2F7160" fill-opacity="0.81960785" d="M1396.36 630.999C1411.54 632.056 1428.02 631.619 1443.37 631.552L1444.2 632.849C1434.73 634.565 1424.21 634.796 1414.61 634.939C1424.11 634.927 1430.15 635.267 1439.53 636.106C1428.07 636.352 1416.61 636.397 1405.14 636.239C1401.6 633.235 1400.73 632.503 1396.36 630.999Z"/><path fill="#317260" fill-opacity="0.42352942" d="M1362.82 595.533C1360.02 595.777 1360.53 596.176 1358.6 594.986C1357.97 588.299 1356.85 571.449 1359.35 565.632L1362.79 564.31C1362.81 574.004 1363.18 586.036 1362.82 595.533Z"/><path fill="#317260" fill-opacity="0.96470588" d="M1809.76 174.737C1812.89 175.58 1812.18 174.943 1813.95 176.886C1814.04 185.36 1814.23 195.33 1813.95 203.786C1811.75 204.993 1812.26 205.191 1810.46 204.736L1809.43 201.137C1809.1 195.682 1808.67 179.537 1809.76 174.737Z"/><path fill="#317260" fill-opacity="0.1254902" d="M748.948 611.088C749.426 603.328 748.962 597.719 750.287 589.966C751.567 599.513 752.268 633.199 751.102 641.776L750.16 642.21L748.442 640.074C748.978 637.027 748.901 615.278 748.948 611.088Z"/><path fill="#317260" fill-opacity="0.79607844" d="M1546.35 631.644C1550.49 631.658 1555.97 631.252 1559.59 632.904C1560.69 634.079 1561.61 634.968 1562.46 636.341C1556.31 637.062 1538.96 636.323 1532.08 636.184C1536.46 635.176 1539.03 635.146 1543.45 634.957C1539.2 634.7 1530.43 634.342 1527.1 631.836L1546.35 631.644Z"/><path fill="#317260" fill-opacity="0.51764709" d="M693.948 290.66L691.63 289.13C695.082 286.171 728.094 286.288 732.934 288.576L732.231 290.676C719.47 290.533 706.708 290.528 693.948 290.66Z"/><path fill="#317260" fill-opacity="0.39215687" d="M1449.07 276.019C1454.72 276.133 1464.33 274.866 1467.63 277.981L1467.87 280.656C1461.28 281.169 1446.59 280.725 1439.42 280.719C1441.17 279.271 1442.88 277.792 1444.58 276.283L1449.07 276.019Z"/><path fill="#317260" fill-opacity="0.87058824" d="M1303.07 646.476L1304.24 652.647L1304.76 652.612L1304.49 651.86L1306.38 651.611C1307.64 654.401 1307.73 656.782 1308.08 659.814C1308.2 662.988 1308.74 671.822 1308.16 674.399C1306.65 674.645 1305.59 674.971 1304.11 674.557L1303.31 669.204C1302.97 665.153 1302.9 662.213 1302.94 658.146C1303.3 655.057 1303.1 649.749 1303.07 646.476Z"/><path fill="#317260" fill-opacity="0.74509805" d="M1513.06 566.617C1518.11 566.412 1532.97 565.925 1537.49 566.489C1534.34 572.581 1518.16 572.852 1513.68 569.868L1513.06 566.617Z"/><path fill="#317260" fill-opacity="0.49019608" d="M696.627 286.03C704.978 285.805 732.869 284.821 739.123 287.554C740.479 289.273 740.17 288.32 740.087 290.504L732.231 290.676L732.934 288.576C728.094 286.288 695.082 286.171 691.63 289.13L693.948 290.66L690.238 290.353L684.816 288.798L685.249 287.906C689.386 287.374 692.525 286.963 696.627 286.03Z"/><path fill="#317260" fill-opacity="0.35686275" d="M751.619 213.864L750.143 217.544C750.374 207.486 746.927 183.216 750.236 173.758L751.479 174.816C752.001 186.816 752.026 201.806 751.619 213.864Z"/><path fill="#317260" fill-opacity="0.21960784" d="M740.988 655.704C740.715 657.265 740.674 659.53 739.627 660.157C735.984 662.338 727.864 661.98 723.966 661.225C723.426 661.12 722.889 661.004 722.355 660.875C722.019 659.496 722.407 657.949 722.635 656.515C728.315 656.554 735.575 656.88 740.988 655.704Z"/><path fill="#317260" fill-opacity="0.45882353" d="M682.386 286.109C686.902 286.021 692.177 285.784 696.627 286.03C692.525 286.963 689.386 287.374 685.249 287.906L684.816 288.798L690.238 290.353C683.275 290.606 677.175 290.551 670.203 290.387C665.432 289.702 661.826 289.496 656.767 288.642C661.474 287.099 678.806 288.633 682.386 286.109Z"/><path fill="#317260" fill-opacity="0.9254902" d="M1809.43 201.137L1810.46 204.736C1812.26 205.191 1811.75 204.993 1813.95 203.786L1814.03 210.882C1813.99 214.087 1814.31 217.705 1812.61 220.324C1811.64 220.916 1810.36 221.752 1809.38 222.235C1808.72 216.726 1809.23 206.765 1809.43 201.137Z"/></svg>